# xmcd CD database file
#
# Track frame offsets:
#	150
#	19413
#	35351
#	54588
#	61526
#	79826
#	92501
#	105626
#
# Disc length: 1618 seconds
#
# Revision: 1
# Processed by: cddbd v1.5.2PL0 Copyright (c) Steve Scherf et al.
# Submitted via: CDex 1.70beta2
#
DISCID=58065008
DTITLE=林一峰 - 思 生活 Season II 自虐式的自省
DYEAR=2007
DGENRE=Country
TTITLE0=魔鬼與我同生
TTITLE1=煙圈和肥皂泡
TTITLE2=燃
TTITLE3=曼克頓的最後一夜
TTITLE4=與陌生人喝酒
TTITLE5=兩支牙刷
TTITLE6=私生活-慕尼黑
TTITLE7=留下腳印、帶走回憶
EXTD=YEAR: 2007
EXTT0=
EXTT1=
EXTT2=
EXTT3=
EXTT4=
EXTT5=
EXTT6=
EXTT7=
PLAYORDER=
